<?xml version="1.0" standalone="no"?>
<!DOCTYPE svg PUBLIC "-//W3C//DTD SVG 20010904//EN"
 "http://www.w3.org/TR/2001/REC-SVG-20010904/DTD/svg10.dtd">
<svg version="1.0" xmlns="http://www.w3.org/2000/svg"
 width="669.000000pt" height="373.000000pt" viewBox="0 0 669.000000 373.000000"
 preserveAspectRatio="xMidYMid meet">

<g transform="translate(0.000000,373.000000) scale(0.100000,-0.100000)"
fill="#000000" stroke="none">
<path d="M2610 2380 c0 -811 0 -809 72 -960 70 -146 190 -243 357 -289 223
-62 511 -41 681 50 163 87 277 259 315 474 17 101 20 313 5 434 -42 331 -217
539 -494 586 -110 19 -154 19 -234 0 -116 -27 -212 -90 -285 -185 l-27 -35 0
221 c0 296 -10 343 -84 398 -24 18 -45 21 -167 24 l-139 4 0 -722z m846 -70
c138 -59 200 -212 191 -465 -6 -179 -28 -247 -105 -325 -65 -67 -124 -90 -227
-90 -92 0 -151 24 -212 87 -73 75 -94 142 -100 329 -5 120 -2 152 16 225 36
144 123 239 237 259 64 11 149 2 200 -20z"/>
<path d="M2610 1397 c0 -83 13 -126 57 -189 29 -43 103 -93 152 -103 52 -11
187 -12 159 -1 -160 62 -259 149 -326 286 l-42 85 0 -78z"/>
<path d="M1235 905 c-25 -24 -25 -25 -25 -230 0 -264 -11 -249 179 -243 145 4
174 12 219 61 45 48 38 147 -11 182 l-21 15 22 23 c17 18 22 36 22 74 0 103
-71 143 -252 143 -102 0 -110 -1 -133 -25z m225 -85 c11 -11 20 -26 20 -34 0
-32 -61 -65 -95 -52 -11 4 -15 20 -15 56 l0 50 35 0 c22 0 43 -8 55 -20z m-16
-174 c19 -8 37 -24 41 -36 13 -42 -40 -88 -92 -78 -14 2 -19 14 -21 52 -5 80
6 89 72 62z"/>
<path d="M3839 911 c-24 -19 -24 -22 -27 -223 -3 -229 2 -251 54 -256 52 -5
64 16 64 119 0 49 3 89 8 89 4 0 48 -41 97 -91 122 -122 169 -145 215 -99 19
19 20 33 20 235 l0 215 -25 16 c-33 21 -73 11 -85 -22 -6 -14 -10 -59 -10
-100 0 -41 -3 -74 -6 -74 -3 0 -51 47 -107 105 -93 96 -105 105 -138 105 -21
0 -47 -8 -60 -19z"/>
<path d="M5260 889 c-41 -17 -59 -39 -66 -84 -3 -24 -12 -46 -19 -49 -8 -3
-19 -14 -25 -26 -9 -17 -7 -24 14 -45 21 -21 26 -37 30 -102 5 -82 22 -117 67
-140 58 -30 143 -3 174 56 34 66 7 115 -40 71 -33 -31 -45 -18 -45 46 0 51 1
54 26 54 39 0 64 18 64 45 0 27 -25 45 -64 45 -25 0 -26 2 -26 58 0 79 -23 97
-90 71z"/>
<path d="M1769 753 c-41 -35 -59 -79 -59 -147 0 -138 78 -205 192 -167 27 9
43 9 57 2 29 -16 87 -13 105 4 22 23 28 70 24 189 -2 82 -7 109 -20 122 -22
22 -93 24 -114 3 -14 -15 -19 -15 -52 2 -52 27 -94 24 -133 -8z m156 -148 c0
-71 -2 -80 -19 -83 -29 -6 -46 25 -46 81 0 61 14 89 43 85 21 -3 22 -8 22 -83z"/>
<path d="M2178 769 c-21 -12 -24 -49 -6 -67 7 -7 34 -12 60 -12 26 0 48 -4 48
-8 0 -4 -23 -30 -51 -57 -59 -58 -79 -92 -79 -134 0 -53 26 -61 185 -61 149 0
165 5 165 46 0 32 -19 43 -83 46 l-58 3 71 79 c57 64 70 85 70 112 0 55 -24
64 -175 64 -71 0 -138 -5 -147 -11z"/>
<path d="M2623 762 c-34 -26 -63 -100 -63 -161 0 -63 29 -134 66 -158 29 -18
91 -19 139 -2 27 10 38 10 47 1 16 -16 80 -15 104 2 17 13 19 29 22 146 4 147
-4 173 -57 185 -28 6 -69 -7 -82 -26 -3 -5 -23 0 -44 11 -48 24 -103 25 -132
2z m152 -157 c0 -71 -2 -80 -19 -83 -28 -6 -46 25 -46 74 0 63 15 96 43 92 21
-3 22 -8 22 -83z"/>
<path d="M3078 764 c-44 -24 -68 -82 -68 -166 0 -80 18 -123 64 -153 30 -20
95 -22 137 -5 23 10 36 10 55 1 37 -16 79 -13 97 7 24 27 25 283 1 306 -27 27
-63 31 -93 8 -26 -19 -28 -19 -61 -1 -42 22 -95 23 -132 3z m157 -97 c4 -13 5
-50 3 -82 -3 -57 -5 -60 -30 -63 -22 -3 -28 2 -38 34 -13 39 -8 97 11 120 18
22 48 17 54 -9z"/>
<path d="M3498 768 c-37 -13 -48 -53 -48 -169 0 -97 10 -147 33 -161 24 -15
87 -8 107 12 17 17 20 33 20 114 0 52 4 98 10 101 5 3 24 -1 41 -10 56 -30
104 6 92 68 -9 47 -55 64 -118 42 -21 -8 -44 -10 -50 -6 -18 15 -59 19 -87 9z"/>
<path d="M4453 768 c-105 -34 -152 -164 -95 -261 25 -41 108 -78 175 -78 85 0
163 47 169 102 3 26 9 26 -115 13 -59 -7 -87 4 -87 32 0 11 17 14 65 14 73 0
120 18 130 51 10 30 -2 84 -23 102 -38 34 -151 47 -219 25z m105 -91 c2 -20 0
-38 -5 -38 -59 -9 -63 -8 -63 14 0 31 28 69 48 65 12 -2 18 -15 20 -41z"/>
<path d="M4844 766 c-43 -19 -74 -62 -74 -103 0 -46 41 -84 116 -109 31 -11
57 -23 58 -29 2 -17 -55 -17 -101 0 -52 20 -73 15 -73 -20 0 -43 64 -77 147
-78 105 -1 177 36 189 98 12 65 -18 94 -160 150 -32 13 -37 17 -26 30 17 20
28 19 88 -11 56 -28 82 -26 82 4 0 62 -159 105 -246 68z"/>
</g>
</svg>
