<?xml version="1.0" standalone="no"?>
<!DOCTYPE svg PUBLIC "-//W3C//DTD SVG 20010904//EN"
 "http://www.w3.org/TR/2001/REC-SVG-20010904/DTD/svg10.dtd">
<svg version="1.0" xmlns="http://www.w3.org/2000/svg"
 width="507.000000pt" height="72.000000pt" viewBox="0 0 507.000000 72.000000"
 preserveAspectRatio="xMidYMid meet">

<g transform="translate(0.000000,72.000000) scale(0.100000,-0.100000)"
fill="#000000" stroke="none">
<path d="M93 670 c-39 -16 -43 -39 -43 -278 0 -300 -16 -277 197 -277 132 1
164 4 196 19 103 50 133 171 61 247 l-26 27 20 29 c36 49 33 128 -5 174 -48
57 -90 69 -243 68 -74 0 -145 -4 -157 -9z m230 -97 c10 -2 22 -16 28 -30 17
-44 -20 -83 -80 -83 l-31 0 0 66 0 66 33 -7 c17 -4 40 -9 50 -12z m29 -233
c39 -48 8 -99 -65 -110 l-47 -7 0 75 0 75 47 -6 c32 -3 53 -12 65 -27z"/>
<path d="M3091 654 c-20 -25 -21 -39 -21 -270 0 -240 0 -243 22 -258 29 -21
61 -20 87 1 18 16 21 30 23 126 l3 109 118 -112 c124 -117 170 -145 218 -135
56 13 59 26 59 292 0 268 -1 273 -64 273 -56 0 -66 -21 -66 -145 l0 -109 -128
127 -129 127 -51 0 c-43 0 -54 -4 -71 -26z"/>
<path d="M4745 635 c-54 -19 -75 -48 -75 -100 0 -35 -4 -44 -26 -53 -21 -10
-25 -18 -22 -45 2 -22 10 -35 26 -42 19 -9 22 -17 22 -73 0 -134 37 -196 122
-208 67 -9 130 22 157 80 27 54 26 82 -1 97 -19 10 -24 8 -41 -15 -36 -50 -57
-26 -57 67 l0 47 38 0 c38 0 72 23 72 48 0 24 -40 52 -75 52 l-35 0 0 68 c0
94 -18 108 -105 77z"/>
<path d="M680 472 c-46 -46 -64 -104 -57 -189 8 -109 67 -173 159 -173 27 0
63 7 80 16 29 15 34 15 59 0 31 -18 66 -20 103 -6 37 14 49 71 44 218 -3 121
-4 124 -31 148 -34 29 -85 32 -118 5 -23 -19 -24 -19 -61 0 -22 11 -58 19 -89
19 -46 0 -55 -4 -89 -38z m198 -74 c7 -7 12 -42 12 -88 0 -46 -5 -81 -12 -88
-21 -21 -47 -13 -63 18 -41 79 11 210 63 158z"/>
<path d="M1166 494 c-9 -8 -16 -24 -16 -34 0 -34 28 -50 86 -50 30 0 54 -4 54
-8 0 -4 -27 -34 -61 -67 -70 -70 -89 -101 -89 -149 0 -25 7 -40 26 -55 24 -19
40 -21 181 -21 87 0 163 4 174 10 13 8 19 21 19 46 0 28 -5 36 -27 45 -16 6
-52 9 -81 7 -29 -3 -51 -1 -50 3 2 4 38 46 81 94 68 76 77 90 77 125 0 64 -18
70 -202 70 -129 0 -159 -3 -172 -16z"/>
<path d="M1679 483 c-91 -77 -94 -261 -5 -342 34 -32 115 -40 170 -17 33 14
41 14 66 1 47 -24 110 -15 132 19 4 6 8 82 8 168 l0 157 -26 20 c-34 26 -84
27 -116 1 -25 -19 -25 -19 -64 0 -57 30 -125 27 -165 -7z m186 -173 c0 -94 0
-95 -25 -95 -35 0 -52 37 -47 107 4 63 20 90 51 86 20 -3 21 -9 21 -98z"/>
<path d="M2190 472 c-46 -46 -64 -104 -57 -189 8 -109 67 -173 159 -173 27 0
63 7 80 16 29 15 34 15 61 -1 36 -21 105 -15 124 11 9 13 13 63 13 175 l0 158
-26 20 c-33 26 -84 27 -115 2 -23 -19 -24 -19 -61 0 -22 11 -58 19 -89 19 -46
0 -55 -4 -89 -38z m198 -74 c18 -18 16 -162 -3 -178 -54 -45 -98 66 -61 155
16 36 41 46 64 23z"/>
<path d="M2684 487 c-29 -25 -29 -26 -32 -154 -4 -163 7 -204 59 -217 42 -10
81 -3 103 20 13 12 16 39 16 125 0 124 6 134 67 105 59 -28 102 -1 103 66 0
68 -68 97 -142 59 -32 -16 -38 -16 -51 -4 -8 8 -32 17 -54 20 -32 4 -45 1 -69
-20z"/>
<path d="M3800 494 c-43 -18 -86 -59 -108 -99 -23 -44 -21 -143 4 -186 48 -82
196 -124 299 -85 52 20 105 76 105 111 0 30 -23 32 -90 9 -26 -9 -60 -13 -79
-10 -32 5 -71 31 -71 46 0 4 38 10 85 12 128 8 170 47 143 132 -19 59 -75 86
-178 86 -44 -1 -89 -7 -110 -16z m135 -81 c11 -45 -2 -63 -46 -63 -21 0 -39 2
-39 5 0 14 32 80 42 86 18 11 36 0 43 -28z"/>
<path d="M4267 496 c-75 -27 -109 -86 -87 -152 10 -28 22 -40 63 -59 29 -13
72 -30 96 -37 53 -15 63 -35 25 -44 -18 -5 -50 1 -96 17 -65 22 -69 22 -85 6
-16 -16 -16 -20 -3 -45 24 -44 92 -72 175 -72 93 0 142 15 182 55 27 27 33 40
33 76 0 26 -7 53 -18 65 -20 25 -78 56 -140 75 -47 14 -68 32 -57 50 11 17 79
5 114 -20 34 -25 69 -27 78 -5 10 27 -14 61 -59 83 -52 25 -160 28 -221 7z"/>
</g>
</svg>
