<?xml version="1.0" standalone="no"?>
<!DOCTYPE svg PUBLIC "-//W3C//DTD SVG 20010904//EN"
 "http://www.w3.org/TR/2001/REC-SVG-20010904/DTD/svg10.dtd">
<svg version="1.0" xmlns="http://www.w3.org/2000/svg"
 width="246.000000pt" height="262.000000pt" viewBox="0 0 246.000000 262.000000"
 preserveAspectRatio="xMidYMid meet">

<g transform="translate(0.000000,262.000000) scale(0.100000,-0.100000)"
fill="#000000" stroke="none">
<path d="M290 1743 c0 -822 5 -921 46 -1061 52 -180 166 -307 356 -397 197
-94 530 -106 773 -28 135 42 274 147 351 263 104 156 151 379 141 660 -16 412
-138 664 -378 786 -185 93 -451 100 -614 16 -59 -30 -134 -94 -177 -150 l-43
-57 -5 300 c-5 298 -5 301 -31 350 -18 36 -38 57 -70 75 -41 23 -56 25 -196
28 l-153 4 0 -789z m985 -123 c149 -64 227 -239 227 -510 0 -213 -40 -339
-137 -437 -38 -38 -66 -56 -106 -68 -121 -37 -234 -29 -332 23 -122 65 -186
230 -186 477 0 143 19 249 62 339 54 113 131 177 236 196 66 12 184 2 236 -20z"/>
<path d="M294 558 c3 -86 8 -117 29 -161 29 -63 88 -127 145 -156 46 -23 144
-41 222 -40 l55 0 -38 14 c-184 68 -323 205 -394 388 l-24 62 5 -107z"/>
</g>
</svg>
