<?xml version="1.0" standalone="no"?>
<!DOCTYPE svg PUBLIC "-//W3C//DTD SVG 20010904//EN"
 "http://www.w3.org/TR/2001/REC-SVG-20010904/DTD/svg10.dtd">
<svg version="1.0" xmlns="http://www.w3.org/2000/svg"
 width="602.000000pt" height="414.000000pt" viewBox="0 0 602.000000 414.000000"
 preserveAspectRatio="xMidYMid meet">

<g transform="translate(0.000000,414.000000) scale(0.100000,-0.100000)"
fill="#000000" stroke="none">
<path d="M15 2340 c4 -6 11 -8 16 -5 14 9 11 15 -7 15 -8 0 -12 -5 -9 -10z"/>
<path d="M2860 1814 c0 -105 44 -190 121 -229 18 -10 63 -19 99 -21 l65 -4
-45 21 c-51 25 -133 87 -159 121 -30 40 -61 98 -61 116 0 9 -5 24 -10 32 -7
11 -10 1 -10 -36z"/>
</g>
</svg>
